<?xml version="1.0" encoding="utf-8"?>
<!-- Generator: Adobe Illustrator 16.0.0, SVG Export Plug-In . SVG Version: 6.00 Build 0)  -->
<!DOCTYPE svg PUBLIC "-//W3C//DTD SVG 1.1//EN" "http://www.w3.org/Graphics/SVG/1.1/DTD/svg11.dtd">
<svg version="1.1" id="Livello_1" xmlns="http://www.w3.org/2000/svg" xmlns:xlink="http://www.w3.org/1999/xlink" x="0px" y="0px"
	 width="300px" height="300px" viewBox="0 0 300 300" enable-background="new 0 0 300 300" xml:space="preserve">
<g>
	<g>
		<path fill="#FFFFFF" d="M242.865,147.151c11.881-24.775,7.788-54.704-10.262-74.711c-20.825-23.075-55.506-28.919-82.691-14.002
			C124.525,44.812,93.49,48.35,72.495,67.312c-22.438,20.245-28.694,53.057-15.386,80.048l-0.854,0.861
			c-3.872,3.868-6.007,9.014-6.007,14.494c0,5.484,2.135,10.63,6.007,14.494c3.857,3.869,9.011,6.004,14.487,6.004
			c0.634,0,1.251-0.044,1.841-0.106c-0.545,6.028,1.604,12.032,5.859,16.295c4.314,4.306,10.174,6.595,16.328,5.896
			c-0.538,6.03,1.604,12.029,5.859,16.287c3.873,3.884,9.025,6.015,14.502,6.015c0.626,0,1.236-0.052,1.826-0.117
			c-0.53,6.039,1.604,12.047,5.859,16.298c3.872,3.868,9.025,6.007,14.502,6.007c4.564,0,9.036-1.597,12.688-4.513
			c0.104,0.059,0.191,0.111,0.265,0.137c3.636,2.812,7.965,4.299,12.5,4.299c5.447,0,10.601-2.146,14.487-6.047
			c4.27-4.267,6.434-10.259,5.934-16.254c5.948,0.508,11.977-1.657,16.269-5.931c4.262-4.27,6.419-10.269,5.904-16.265
			c6.065,0.508,12.014-1.656,16.269-5.926c4.27-4.274,6.434-10.262,5.934-16.262c5.934,0.497,11.977-1.645,16.261-5.929
			c7.987-7.991,7.987-20.999,0-28.986L242.865,147.151z M157.693,65.218c22.908-10.796,50.749-5.187,67.769,13.67
			c14.781,16.38,18.684,40.142,10.13,60.971l-57.479-57.478c-0.92-0.905-2.12-1.402-3.4-1.402c-1.296,0-2.503,0.497-3.408,1.406
			l-32.336,32.332c-1.943,1.954-4.74,3.072-7.686,3.072c-2.93,0-5.741-1.118-7.685-3.072c-2.062-2.058-3.194-4.789-3.194-7.693
			c0-2.911,1.133-5.639,3.194-7.692L157.693,65.218z M70.743,173.485c-2.929-0.006-5.741-1.121-7.685-3.072
			c-4.256-4.248-4.256-11.153,0-15.389l11.902-11.911c2.047-2.051,4.793-3.181,7.693-3.181c2.908,0,5.639,1.13,7.699,3.181
			c2.062,2.058,3.188,4.789,3.188,7.7c0,2.907-1.126,5.635-3.188,7.688l-11.91,11.911C76.485,172.364,73.688,173.485,70.743,173.485
			z M92.931,195.67c-2.923,0-5.728-1.12-7.686-3.069c-4.24-4.244-4.24-11.15,0-15.391l11.896-11.906
			c2.062-2.05,4.792-3.177,7.7-3.177c2.915,0,5.646,1.127,7.692,3.177c2.069,2.058,3.188,4.792,3.188,7.695
			c0,2.905-1.119,5.644-3.188,7.693l-11.903,11.908C98.673,194.55,95.875,195.67,92.931,195.67z M107.433,214.794
			c-4.24-4.251-4.24-11.151,0-15.392l11.911-11.907c2.047-2.055,4.777-3.181,7.686-3.181c2.914,0,5.639,1.126,7.699,3.181
			c2.062,2.057,3.195,4.788,3.195,7.692c0,2.907-1.134,5.639-3.195,7.696l-11.91,11.91
			C118.726,218.888,111.541,218.895,107.433,214.794z M145.002,236.981c-1.959,1.955-4.76,3.074-7.682,3.074
			c-2.944,0-5.742-1.119-7.693-3.074c-2.053-2.057-3.188-4.788-3.188-7.696c0-2.903,1.135-5.646,3.188-7.7l11.904-11.903
			c2.051-2.046,4.781-3.184,7.688-3.184s5.64,1.138,7.693,3.184c2.054,2.055,3.194,4.796,3.194,7.7c0,2.908-1.141,5.632-3.194,7.686
			L145.002,236.981z M170.458,236.872c-3.556,3.54-9.077,4.144-13.302,1.571l6.559-6.567c3.21-3.198,5.22-7.283,5.816-11.703
			c0.234,0.478,0.543,0.919,0.927,1.306C174.713,225.719,174.713,232.627,170.458,236.872z M237.021,170.295
			c-1.943,1.95-4.756,3.08-7.686,3.08l0,0c-2.945-0.003-5.742-1.13-7.7-3.08c-1.825-1.818-4.977-1.818-6.802,0
			c-0.898,0.916-1.399,2.12-1.399,3.401c0,1.288,0.501,2.491,1.399,3.401c2.061,2.049,3.195,4.784,3.195,7.691
			c0,2.915-1.135,5.646-3.195,7.7c-1.944,1.947-4.756,3.077-7.686,3.077l0,0c-2.945,0-5.742-1.13-7.686-3.084
			c-1.833-1.812-5.006-1.812-6.802,0c-0.928,0.908-1.414,2.123-1.414,3.404c0,1.285,0.486,2.492,1.399,3.401
			c4.24,4.247,4.24,11.146,0,15.389c-4.093,4.093-11.292,4.093-15.386,0c-0.912-0.909-2.121-1.402-3.4-1.402
			c-1.297,0-2.504,0.493-3.401,1.402c-0.325,0.316-0.589,0.678-0.81,1.071c-0.369-4.862-2.444-9.39-5.934-12.864
			c-4.27-4.262-10.211-6.397-16.299-5.87c0.074-0.593,0.118-1.205,0.118-1.826c0-5.478-2.135-10.627-6.003-14.495
			c-4.263-4.262-10.284-6.396-16.299-5.871c0.066-0.581,0.118-1.191,0.118-1.822c0-5.472-2.136-10.621-6.007-14.497
			c-4.256-4.255-10.307-6.405-16.306-5.863c0.065-0.586,0.11-1.2,0.11-1.825c0-5.478-2.12-10.631-6-14.502
			c-3.864-3.865-9.018-5.992-14.502-5.992c-5.483,0-10.623,2.127-14.494,5.992l-3.807,3.815
			c-9.68-22.749-3.924-48.966,14.592-65.677c17.652-15.927,42.791-19.213,64.467-8.543l-26.615,26.619
			c-3.865,3.87-6.007,9.022-6.007,14.499c0,5.478,2.142,10.622,6.007,14.498c3.879,3.868,9.018,5.999,14.494,5.999
			c5.478,0,10.623-2.131,14.499-5.999l28.931-28.937l62.308,62.322c2.061,2.058,3.193,4.784,3.193,7.692
			C240.214,165.514,239.081,168.241,237.021,170.295z"/>
	</g>
</g>
</svg>
