<?xml version="1.0" encoding="utf-8"?>
<!-- Generator: Adobe Illustrator 16.0.0, SVG Export Plug-In . SVG Version: 6.00 Build 0)  -->
<!DOCTYPE svg PUBLIC "-//W3C//DTD SVG 1.1//EN" "http://www.w3.org/Graphics/SVG/1.1/DTD/svg11.dtd">
<svg version="1.1" id="Livello_1" xmlns="http://www.w3.org/2000/svg" xmlns:xlink="http://www.w3.org/1999/xlink" x="0px" y="0px"
	 width="300px" height="300px" viewBox="0 0 300 300" enable-background="new 0 0 300 300" xml:space="preserve">
<g>
	<g>
		<path fill="#FFFFFF" d="M226.728,198.45c-0.662-1.119-1.708-1.914-2.96-2.253l-38.221-9.981L132.35,95.42
			c-1.354-2.297-4.32-3.077-6.64-1.723c-2.296,1.354-3.069,4.314-1.723,6.625l53.213,90.796l-9.982,38.22
			c-0.323,1.237-0.147,2.562,0.501,3.682l31.462,53.709c0.677,1.134,1.745,1.929,2.96,2.237c0.604,0.162,1.244,0.191,1.884,0.118
			c1.951-0.265,3.533-1.693,4.034-3.578l9.262-35.481l35.467,9.274c1.898,0.486,3.916-0.205,5.094-1.767
			c1.179-1.561,1.311-3.68,0.31-5.373L226.728,198.45z M201.64,271.74l-24.542-41.901l7.021-26.913l20.95,35.776l3.593,6.124
			L201.64,271.74z M217.01,239.939l-3.592-6.141l-20.943-35.761l26.906,7.037l24.543,41.901L217.01,239.939z"/>
	</g>
	<g>
		<path fill="#FFFFFF" d="M155.248,180.518c2.547-0.824,3.916-3.577,3.092-6.11c-0.847-2.532-3.578-3.915-6.125-3.077
			c-14.138,4.639-29.199,5.124-43.584,1.355c-41.252-10.764-66.054-53.091-55.275-94.337c10.77-41.239,53.098-66.047,94.354-55.27
			c41.254,10.777,66.062,53.105,55.285,94.336c-3.754,14.399-11.528,27.296-22.496,37.353c-1.974,1.796-2.105,4.858-0.295,6.831
			c1.804,1.973,4.865,2.106,6.846,0.294c12.339-11.307,21.099-25.823,25.324-42.019c12.131-46.414-15.791-94.042-62.219-106.159
			C103.729,1.583,56.101,29.483,43.969,75.89c-12.117,46.414,15.798,94.057,62.212,106.173
			C122.36,186.289,139.344,185.759,155.248,180.518z"/>
	</g>
	<g>
		<path fill="#FFFFFF" d="M166.268,137.571c2.018,1.752,5.072,1.561,6.84-0.442c6.183-7.066,10.496-15.208,12.838-24.16
			c8.325-31.86-10.828-64.522-42.689-72.841c-31.871-8.318-64.541,10.807-72.867,42.66c-8.326,31.86,10.829,64.53,42.689,72.863
			c8.98,2.342,18.168,2.547,27.34,0.604c2.632-0.561,4.303-3.122,3.744-5.742c-0.545-2.621-3.118-4.284-5.731-3.739
			c-7.715,1.634-15.399,1.456-22.901-0.501c-26.686-6.964-42.733-34.349-35.77-61.041c6.979-26.671,34.355-42.704,61.041-35.726
			c26.704,6.964,42.76,34.327,35.781,61.018c-1.959,7.495-5.581,14.297-10.764,20.216
			C164.052,132.757,164.266,135.805,166.268,137.571z"/>
	</g>
	<g>
		<path fill="#FFFFFF" d="M152.334,112.071c2.582,0.957,5.291-0.354,6.212-2.871c0.368-1.016,0.714-2.062,0.993-3.136
			c4.513-17.285-5.881-35.018-23.185-39.538c-17.284-4.521-35.025,5.875-39.538,23.166c-4.512,17.284,5.867,35.025,23.166,39.545
			c1.075,0.281,2.15,0.502,3.225,0.663c2.635,0.427,5.123-1.384,5.535-4.02c0.428-2.636-1.441-5.124-4.033-5.521
			c-0.758-0.133-1.517-0.295-2.282-0.486c-12.116-3.165-19.405-15.621-16.239-27.737c3.166-12.109,15.606-19.397,27.723-16.247
			c12.121,3.18,19.424,15.614,16.258,27.73c-0.205,0.766-0.441,1.517-0.707,2.238C148.534,108.376,149.83,111.158,152.334,112.071z"
			/>
	</g>
</g>
</svg>
