<?xml version="1.0" encoding="utf-8"?>
<!-- Generator: Adobe Illustrator 16.0.0, SVG Export Plug-In . SVG Version: 6.00 Build 0)  -->
<!DOCTYPE svg PUBLIC "-//W3C//DTD SVG 1.1//EN" "http://www.w3.org/Graphics/SVG/1.1/DTD/svg11.dtd">
<svg version="1.1" id="Livello_1" xmlns="http://www.w3.org/2000/svg" xmlns:xlink="http://www.w3.org/1999/xlink" x="0px" y="0px"
	 width="300px" height="300px" viewBox="0 0 300 300" enable-background="new 0 0 300 300" xml:space="preserve">
<g>
	<g>
		<path fill="#FFFFFF" d="M207.686,250.722v-55.211c3.637-7.126,23.822-47.92,23.822-75.831v-3.791
			c0-39.276-31.951-71.218-71.216-71.218c-39.28,0-71.214,31.941-71.214,71.218v3.879l-20.186,44.59
			c-0.633,1.421-0.508,3.062,0.331,4.386c0.847,1.326,2.305,2.113,3.888,2.113h15.967v23.741c0,12.588,10.232,22.835,22.82,22.835
			h15.076v33.289c0,2.546,2.053,4.607,4.608,4.607c2.554,0,4.622-2.062,4.622-4.607v-33.289h5.124c2.562,0,4.623-2.076,4.623-4.615
			c0-2.547-2.062-4.616-4.623-4.616h-9.746h-19.685c-7.502,0-13.59-6.109-13.59-13.604v-28.356c0-2.547-2.068-4.608-4.623-4.608
			H80.258l17.638-38.976c0.266-0.596,0.412-1.243,0.412-1.895v-4.874c0-34.183,27.797-61.99,61.983-61.99
			c34.171,0,61.985,27.808,61.985,61.99v3.791c0,27.753-23.066,72.136-23.292,72.577c-0.354,0.662-0.531,1.398-0.531,2.142v56.323
			c0,2.546,2.062,4.607,4.609,4.607C205.623,255.329,207.686,253.268,207.686,250.722z"/>
	</g>
	<g>
		<path fill="#FFFFFF" d="M159.276,105.829c2.547,0,4.608-2.061,4.608-4.615V74.576c0-2.554-2.062-4.615-4.608-4.615
			c-2.562,0-4.622,2.061-4.622,4.615v26.638C154.654,103.769,156.714,105.829,159.276,105.829z"/>
	</g>
	<g>
		<path fill="#FFFFFF" d="M163.884,126.404c0-2.55-2.062-4.619-4.608-4.619c-2.562,0-4.622,2.069-4.622,4.619v26.63
			c0,2.556,2.061,4.623,4.622,4.623c2.547,0,4.608-2.067,4.608-4.623V126.404z"/>
	</g>
	<g>
		<path fill="#FFFFFF" d="M167.256,113.812c0,2.551,2.053,4.616,4.607,4.616h26.634c2.562,0,4.624-2.065,4.624-4.616
			c0-2.55-2.062-4.615-4.624-4.615h-26.634C169.309,109.197,167.256,111.263,167.256,113.812z"/>
	</g>
	<g>
		<path fill="#FFFFFF" d="M146.681,109.197h-26.656c-2.547,0-4.608,2.065-4.608,4.615c0,2.551,2.062,4.616,4.608,4.616h26.656
			c2.553,0,4.601-2.065,4.601-4.616C151.282,111.263,149.234,109.197,146.681,109.197z"/>
	</g>
	<g>
		<path fill="#FFFFFF" d="M180.58,99.031l9.702-9.702c1.797-1.8,1.797-4.723,0-6.526c-1.812-1.807-4.726-1.807-6.529,0l-9.71,9.706
			c-1.797,1.8-1.797,4.719,0,6.522c0.906,0.904,2.083,1.351,3.269,1.351C178.49,100.382,179.667,99.936,180.58,99.031z"/>
	</g>
	<g>
		<path fill="#FFFFFF" d="M137.972,128.588l-9.703,9.706c-1.811,1.8-1.811,4.726,0,6.526c0.898,0.901,2.076,1.35,3.254,1.35
			s2.371-0.448,3.269-1.35l9.702-9.703c1.812-1.808,1.812-4.729,0-6.529C142.699,126.784,139.768,126.784,137.972,128.588z"/>
	</g>
	<g>
		<path fill="#FFFFFF" d="M174.042,128.588c-1.797,1.8-1.797,4.722,0,6.529l9.71,9.703c0.892,0.901,2.083,1.35,3.262,1.35
			c1.177,0,2.37-0.448,3.268-1.35c1.797-1.801,1.797-4.727,0-6.526l-9.702-9.706C178.769,126.784,175.854,126.784,174.042,128.588z"
			/>
	</g>
	<g>
		<path fill="#FFFFFF" d="M141.24,100.382c1.179,0,2.356-0.446,3.254-1.351c1.812-1.804,1.812-4.723,0-6.522l-9.702-9.706
			c-1.804-1.807-4.726-1.807-6.522,0c-1.811,1.804-1.811,4.726,0,6.526l9.703,9.702C138.87,99.936,140.062,100.382,141.24,100.382z"
			/>
	</g>
</g>
</svg>
