<?xml version="1.0" encoding="utf-8"?>
<!-- Generator: Adobe Illustrator 16.0.0, SVG Export Plug-In . SVG Version: 6.00 Build 0)  -->
<!DOCTYPE svg PUBLIC "-//W3C//DTD SVG 1.1//EN" "http://www.w3.org/Graphics/SVG/1.1/DTD/svg11.dtd">
<svg version="1.1" id="Livello_1" xmlns="http://www.w3.org/2000/svg" xmlns:xlink="http://www.w3.org/1999/xlink" x="0px" y="0px"
	 width="300px" height="300px" viewBox="0 0 300 300" enable-background="new 0 0 300 300" xml:space="preserve">
<g>
	<g>
		<path fill="#FFFFFF" d="M150,250.89L150,250.89L150,250.89L150,250.89L150,250.89h0.015l0,0
			c27.37-0.003,53.002-10.81,72.143-30.428c18.536-18.963,28.725-43.988,28.725-70.456c0-26.479-10.188-51.505-28.725-70.471
			C203.002,59.921,177.385,49.11,150,49.11c-27.393,0-53.018,10.811-72.172,30.425c-18.521,18.966-28.71,43.992-28.71,70.471
			c0,26.468,10.188,51.493,28.71,70.456C96.982,240.08,122.607,250.887,150,250.89z M164.002,240.504
			c8.208-7.841,19.213-20.447,27.605-37.646c0.294,0.157,0.604,0.283,0.912,0.444c1.164,0.611,2.283,1.285,3.431,1.951
			c1.414,0.81,2.782,1.642,4.151,2.536c1.104,0.725,2.195,1.495,3.276,2.274c1.317,0.961,2.628,1.939,3.901,2.967
			c1.039,0.836,2.055,1.704,3.07,2.588c0.604,0.548,1.215,1.13,1.818,1.7C198.645,229.837,181.993,237.765,164.002,240.504z
			 M218.712,210.635c-0.7-0.66-1.465-1.215-2.164-1.845c-1.134-0.997-2.275-1.977-3.438-2.922c-1.392-1.123-2.819-2.188-4.27-3.232
			c-1.193-0.865-2.394-1.729-3.63-2.539c-1.502-0.982-3.019-1.893-4.563-2.794c-1.259-0.729-2.488-1.473-3.784-2.153
			c-0.515-0.261-0.993-0.566-1.502-0.824c4.579-11.514,7.818-24.753,8.436-39.704h37.654
			C240.413,175.413,232.522,195.013,218.712,210.635z M216.548,91.214c0.699-0.626,1.464-1.188,2.164-1.849
			c13.811,15.614,21.701,35.226,22.739,56.021h-37.624c-0.479-15.065-3.622-28.364-8.127-39.873
			c0.397-0.206,0.766-0.453,1.163-0.663c1.296-0.681,2.525-1.429,3.784-2.157c1.545-0.897,3.084-1.811,4.563-2.79
			c1.236-0.81,2.437-1.671,3.63-2.542c1.45-1.042,2.878-2.106,4.27-3.229C214.272,93.189,215.414,92.211,216.548,91.214z
			 M212.168,82.686c-0.604,0.57-1.215,1.156-1.833,1.697c-1.001,0.89-2.002,1.752-3.056,2.588c-1.273,1.03-2.584,2.017-3.916,2.973
			c-1.066,0.773-2.157,1.547-3.246,2.268c-1.385,0.898-2.783,1.729-4.174,2.555c-1.141,0.658-2.26,1.322-3.424,1.933
			c-0.184,0.1-0.382,0.173-0.566,0.269c-8.311-17.147-19.324-29.63-27.627-37.425C182.177,62.335,198.718,70.238,212.168,82.686z
			 M154.609,63.311c7.647,6.729,19.831,19.346,28.76,37.535c-1.17,0.453-2.34,0.873-3.518,1.285
			c-1.193,0.401-2.356,0.847-3.557,1.203c-1.678,0.501-3.4,0.891-5.094,1.293c-1.156,0.271-2.289,0.596-3.452,0.824
			c-1.921,0.371-3.88,0.617-5.823,0.868c-0.986,0.125-1.958,0.32-2.959,0.415c-1.429,0.138-2.9,0.145-4.357,0.214V63.311z
			 M154.609,116.198c1.758-0.08,3.539-0.106,5.277-0.276c1.082-0.106,2.142-0.316,3.232-0.46c2.163-0.276,4.313-0.544,6.447-0.96
			c1.273-0.25,2.518-0.607,3.77-0.906c1.899-0.444,3.792-0.875,5.668-1.428c1.311-0.397,2.605-0.888,3.917-1.332
			c1.397-0.49,2.849-0.913,4.226-1.461c4.107,10.474,6.963,22.499,7.436,36.012h-39.973V116.198z M154.609,154.621h39.957
			c-0.618,13.417-3.593,25.393-7.773,35.877c-1.266-0.502-2.592-0.881-3.872-1.326c-1.341-0.449-2.606-0.938-3.917-1.332
			c-1.876-0.557-3.769-0.986-5.668-1.432c-1.252-0.299-2.496-0.652-3.77-0.901c-2.134-0.42-4.284-0.686-6.447-0.965
			c-1.091-0.141-2.15-0.357-3.232-0.461c-1.738-0.165-3.52-0.194-5.277-0.272V154.621z M154.609,193.055
			c1.457,0.073,2.929,0.078,4.357,0.211c1.001,0.095,1.973,0.29,2.959,0.419c1.943,0.25,3.902,0.493,5.823,0.872
			c1.163,0.229,2.296,0.549,3.467,0.825c1.693,0.401,3.401,0.791,5.079,1.288c1.2,0.36,2.371,0.802,3.578,1.211
			c1.046,0.361,2.091,0.743,3.137,1.141c-8.908,17.984-20.848,30.649-28.4,37.488V193.055z M87.825,217.318
			c0.603-0.57,1.206-1.152,1.825-1.7c1.016-0.884,2.031-1.752,3.07-2.588c1.273-1.027,2.568-2.006,3.9-2.963
			c1.082-0.783,2.158-1.554,3.277-2.278c1.346-0.895,2.737-1.723,4.144-2.536c1.126-0.666,2.268-1.34,3.438-1.951
			c0.294-0.161,0.617-0.287,0.912-0.444c8.393,17.199,19.391,29.806,27.591,37.646C118.007,237.765,101.341,229.837,87.825,217.318z
			 M145.377,236.51c-7.546-6.839-19.486-19.504-28.4-37.488c1.06-0.397,2.09-0.779,3.137-1.141c1.206-0.409,2.383-0.851,3.592-1.211
			c1.678-0.497,3.378-0.887,5.079-1.288c1.163-0.276,2.296-0.597,3.475-0.825c1.905-0.379,3.864-0.622,5.808-0.872
			c0.994-0.129,1.958-0.324,2.967-0.419c1.429-0.133,2.893-0.138,4.344-0.211V236.51z M145.377,183.809
			c-1.752,0.078-3.533,0.107-5.271,0.272c-1.082,0.104-2.15,0.32-3.23,0.461c-2.172,0.279-4.314,0.545-6.428,0.965
			c-1.295,0.249-2.539,0.603-3.799,0.901c-1.893,0.445-3.783,0.875-5.638,1.432c-1.317,0.394-2.606,0.883-3.917,1.332
			c-1.303,0.445-2.621,0.824-3.902,1.326c-4.165-10.484-7.154-22.46-7.773-35.877h39.959V183.809z M145.377,145.387h-39.988
			c0.502-13.513,3.35-25.538,7.458-36.012c1.392,0.548,2.833,0.971,4.232,1.461c1.325,0.444,2.614,0.935,3.932,1.332
			c1.854,0.553,3.745,0.983,5.638,1.428c1.26,0.299,2.504,0.656,3.777,0.906c2.135,0.416,4.277,0.684,6.449,0.96
			c1.08,0.144,2.148,0.354,3.23,0.46c1.738,0.17,3.52,0.196,5.271,0.276V145.387z M145.377,63.311v43.638
			c-1.451-0.069-2.915-0.076-4.344-0.214c-1.009-0.095-1.973-0.29-2.952-0.415c-1.958-0.251-3.917-0.497-5.822-0.868
			c-1.179-0.229-2.312-0.553-3.46-0.817c-1.701-0.409-3.416-0.799-5.094-1.3c-1.209-0.356-2.371-0.802-3.562-1.203
			c-1.18-0.412-2.371-0.832-3.521-1.285C125.552,82.656,137.75,70.039,145.377,63.311z M135.666,59.542
			c-8.295,7.795-19.323,20.277-27.627,37.425c-0.191-0.096-0.383-0.169-0.559-0.269c-1.171-0.61-2.297-1.274-3.416-1.933
			c-1.414-0.825-2.82-1.66-4.182-2.555c-1.104-0.721-2.18-1.49-3.254-2.268c-1.34-0.956-2.635-1.942-3.908-2.973
			c-1.039-0.84-2.055-1.698-3.07-2.588c-0.619-0.541-1.223-1.127-1.825-1.697C101.266,70.238,117.815,62.335,135.666,59.542z
			 M81.287,89.365c0.693,0.66,1.459,1.223,2.18,1.849c1.134,0.997,2.252,1.976,3.416,2.919c1.398,1.122,2.826,2.187,4.276,3.229
			c1.186,0.871,2.378,1.732,3.63,2.542c1.487,0.979,3.011,1.893,4.563,2.79c1.237,0.729,2.503,1.477,3.784,2.157
			c0.397,0.21,0.781,0.457,1.163,0.663c-4.52,11.509-7.656,24.808-8.143,39.873H58.541C59.572,124.591,67.479,104.979,81.287,89.365
			z M96.188,154.621c0.618,14.951,3.872,28.19,8.436,39.704c-0.5,0.258-0.979,0.563-1.486,0.824
			c-1.281,0.681-2.547,1.424-3.784,2.153c-1.546,0.901-3.076,1.812-4.563,2.794c-1.252,0.81-2.444,1.674-3.63,2.539
			c-1.45,1.045-2.878,2.109-4.276,3.232c-1.164,0.945-2.312,1.925-3.416,2.922c-0.721,0.63-1.486,1.185-2.18,1.845
			c-13.809-15.622-21.715-35.222-22.746-56.014H96.188z"/>
	</g>
</g>
</svg>
